<svg xmlns="http://www.w3.org/2000/svg" width="760" height="300" viewBox="0 0 760 300"><defs></defs><rect x="20.0" y="54.0" width="20.0" height="20.0" rx="4.4" fill="#8D98E8" fill-opacity="0.175" /><rect x="46.0" y="54.0" width="20.0" height="20.0" rx="4.4" fill="#FFD25A" fill-opacity="1.0" /><rect x="72.0" y="54.0" width="20.0" height="20.0" rx="4.4" fill="#8D98E8" fill-opacity="0.2" /><rect x="98.0" y="54.0" width="20.0" height="20.0" rx="4.4" fill="#8D98E8" fill-opacity="0.108" /><rect x="124.0" y="54.0" width="20.0" height="20.0" rx="4.4" fill="#8D98E8" fill-opacity="0.104" /><rect x="150.0" y="54.0" width="20.0" height="20.0" rx="4.4" fill="#8D98E8" fill-opacity="0.206" /><rect x="176.0" y="54.0" width="20.0" height="20.0" rx="4.4" fill="#8D98E8" fill-opacity="0.172" /><rect x="202.0" y="54.0" width="20.0" height="20.0" rx="4.4" fill="#8D98E8" fill-opacity="0.193" /><rect x="228.0" y="54.0" width="20.0" height="20.0" rx="4.4" fill="#8D98E8" fill-opacity="0.139" /><rect x="254.0" y="54.0" width="20.0" height="20.0" rx="4.4" fill="#8D98E8" fill-opacity="0.171" /><rect x="280.0" y="54.0" width="20.0" height="20.0" rx="4.4" fill="#8D98E8" fill-opacity="0.123" /><rect x="20.0" y="80.0" width="20.0" height="20.0" rx="4.4" fill="#8D98E8" fill-opacity="0.128" /><rect x="46.0" y="80.0" width="20.0" height="20.0" rx="4.4" fill="#8D98E8" fill-opacity="0.135" /><rect x="72.0" y="80.0" width="20.0" height="20.0" rx="4.4" fill="#8D98E8" fill-opacity="0.101" /><rect x="98.0" y="80.0" width="20.0" height="20.0" rx="4.4" fill="#8D98E8" fill-opacity="0.11" /><rect x="124.0" y="80.0" width="20.0" height="20.0" rx="4.4" fill="#8D98E8" fill-opacity="0.179" /><rect x="150.0" y="80.0" width="20.0" height="20.0" rx="4.4" fill="#8D98E8" fill-opacity="0.149" /><rect x="176.0" y="80.0" width="20.0" height="20.0" rx="4.4" fill="#8D98E8" fill-opacity="0.166" /><rect x="202.0" y="80.0" width="20.0" height="20.0" rx="4.4" fill="#8D98E8" fill-opacity="0.212" /><rect x="228.0" y="80.0" width="20.0" height="20.0" rx="4.4" fill="#8D98E8" fill-opacity="0.11" /><rect x="254.0" y="80.0" width="20.0" height="20.0" rx="4.4" fill="#8D98E8" fill-opacity="0.13" /><rect x="280.0" y="80.0" width="20.0" height="20.0" rx="4.4" fill="#8D98E8" fill-opacity="0.191" /><rect x="20.0" y="106.0" width="20.0" height="20.0" rx="4.4" fill="#8D98E8" fill-opacity="0.162" /><rect x="46.0" y="106.0" width="20.0" height="20.0" rx="4.4" fill="#8D98E8" fill-opacity="0.104" /><rect x="72.0" y="106.0" width="20.0" height="20.0" rx="4.4" fill="#8D98E8" fill-opacity="0.168" /><rect x="98.0" y="106.0" width="20.0" height="20.0" rx="4.4" fill="#8D98E8" fill-opacity="0.113" /><rect x="124.0" y="106.0" width="20.0" height="20.0" rx="4.4" fill="#FFD25A" fill-opacity="1.0" /><rect x="150.0" y="106.0" width="20.0" height="20.0" rx="4.4" fill="#8D98E8" fill-opacity="0.113" /><rect x="176.0" y="106.0" width="20.0" height="20.0" rx="4.4" fill="#8D98E8" fill-opacity="0.135" /><rect x="202.0" y="106.0" width="20.0" height="20.0" rx="4.4" fill="#FFD25A" fill-opacity="1.0" /><rect x="228.0" y="106.0" width="20.0" height="20.0" rx="4.4" fill="#8D98E8" fill-opacity="0.108" /><rect x="254.0" y="106.0" width="20.0" height="20.0" rx="4.4" fill="#8D98E8" fill-opacity="0.102" /><rect x="280.0" y="106.0" width="20.0" height="20.0" rx="4.4" fill="#FF9A4D" fill-opacity="1.0" /><rect x="20.0" y="132.0" width="20.0" height="20.0" rx="4.4" fill="#8D98E8" fill-opacity="0.182" /><rect x="46.0" y="132.0" width="20.0" height="20.0" rx="4.4" fill="#8D98E8" fill-opacity="0.126" /><rect x="72.0" y="132.0" width="20.0" height="20.0" rx="4.4" fill="#8D98E8" fill-opacity="0.211" /><rect x="98.0" y="132.0" width="20.0" height="20.0" rx="4.4" fill="#8D98E8" fill-opacity="0.106" /><rect x="124.0" y="132.0" width="20.0" height="20.0" rx="4.4" fill="#8D98E8" fill-opacity="0.145" /><rect x="150.0" y="132.0" width="20.0" height="20.0" rx="4.4" fill="#8D98E8" fill-opacity="0.185" /><rect x="176.0" y="132.0" width="20.0" height="20.0" rx="4.4" fill="#8D98E8" fill-opacity="0.15" /><rect x="202.0" y="132.0" width="20.0" height="20.0" rx="4.4" fill="#FF4D6A" fill-opacity="1.0" /><rect x="228.0" y="132.0" width="20.0" height="20.0" rx="4.4" fill="#8D98E8" fill-opacity="0.168" /><rect x="254.0" y="132.0" width="20.0" height="20.0" rx="4.4" fill="#8D98E8" fill-opacity="0.124" /><rect x="280.0" y="132.0" width="20.0" height="20.0" rx="4.4" fill="#8D98E8" fill-opacity="0.181" /><rect x="20.0" y="158.0" width="20.0" height="20.0" rx="4.4" fill="#8D98E8" fill-opacity="0.14" /><rect x="46.0" y="158.0" width="20.0" height="20.0" rx="4.4" fill="#8D98E8" fill-opacity="0.137" /><rect x="72.0" y="158.0" width="20.0" height="20.0" rx="4.4" fill="#8D98E8" fill-opacity="0.102" /><rect x="98.0" y="158.0" width="20.0" height="20.0" rx="4.4" fill="#8D98E8" fill-opacity="0.149" /><rect x="124.0" y="158.0" width="20.0" height="20.0" rx="4.4" fill="#8D98E8" fill-opacity="0.211" /><rect x="150.0" y="158.0" width="20.0" height="20.0" rx="4.4" fill="#8D98E8" fill-opacity="0.116" /><rect x="176.0" y="158.0" width="20.0" height="20.0" rx="4.4" fill="#8D98E8" fill-opacity="0.185" /><rect x="202.0" y="158.0" width="20.0" height="20.0" rx="4.4" fill="#8D98E8" fill-opacity="0.101" /><rect x="228.0" y="158.0" width="20.0" height="20.0" rx="4.4" fill="#8D98E8" fill-opacity="0.156" /><rect x="254.0" y="158.0" width="20.0" height="20.0" rx="4.4" fill="#8D98E8" fill-opacity="0.158" /><rect x="280.0" y="158.0" width="20.0" height="20.0" rx="4.4" fill="#8D98E8" fill-opacity="0.182" /><rect x="20.0" y="184.0" width="20.0" height="20.0" rx="4.4" fill="#8D98E8" fill-opacity="0.123" /><rect x="46.0" y="184.0" width="20.0" height="20.0" rx="4.4" fill="#8D98E8" fill-opacity="0.161" /><rect x="72.0" y="184.0" width="20.0" height="20.0" rx="4.4" fill="#8D98E8" fill-opacity="0.218" /><rect x="98.0" y="184.0" width="20.0" height="20.0" rx="4.4" fill="#8D98E8" fill-opacity="0.192" /><rect x="124.0" y="184.0" width="20.0" height="20.0" rx="4.4" fill="#8D98E8" fill-opacity="0.15" /><rect x="150.0" y="184.0" width="20.0" height="20.0" rx="4.4" fill="#8D98E8" fill-opacity="0.146" /><rect x="176.0" y="184.0" width="20.0" height="20.0" rx="4.4" fill="#8D98E8" fill-opacity="0.147" /><rect x="202.0" y="184.0" width="20.0" height="20.0" rx="4.4" fill="#8D98E8" fill-opacity="0.219" /><rect x="228.0" y="184.0" width="20.0" height="20.0" rx="4.4" fill="#8D98E8" fill-opacity="0.1" /><rect x="254.0" y="184.0" width="20.0" height="20.0" rx="4.4" fill="#8D98E8" fill-opacity="0.204" /><rect x="280.0" y="184.0" width="20.0" height="20.0" rx="4.4" fill="#8D98E8" fill-opacity="0.217" /><rect x="20.0" y="210.0" width="20.0" height="20.0" rx="4.4" fill="#8D98E8" fill-opacity="0.171" /><rect x="46.0" y="210.0" width="20.0" height="20.0" rx="4.4" fill="#8D98E8" fill-opacity="0.22" /><rect x="72.0" y="210.0" width="20.0" height="20.0" rx="4.4" fill="#8D98E8" fill-opacity="0.102" /><rect x="98.0" y="210.0" width="20.0" height="20.0" rx="4.4" fill="#8D98E8" fill-opacity="0.122" /><rect x="124.0" y="210.0" width="20.0" height="20.0" rx="4.4" fill="#8D98E8" fill-opacity="0.22" /><rect x="150.0" y="210.0" width="20.0" height="20.0" rx="4.4" fill="#8D98E8" fill-opacity="0.172" /><rect x="176.0" y="210.0" width="20.0" height="20.0" rx="4.4" fill="#8D98E8" fill-opacity="0.169" /><rect x="202.0" y="210.0" width="20.0" height="20.0" rx="4.4" fill="#8D98E8" fill-opacity="0.105" /><rect x="228.0" y="210.0" width="20.0" height="20.0" rx="4.4" fill="#8D98E8" fill-opacity="0.118" /><rect x="254.0" y="210.0" width="20.0" height="20.0" rx="4.4" fill="#FFD25A" fill-opacity="1.0" /><rect x="280.0" y="210.0" width="20.0" height="20.0" rx="4.4" fill="#8D98E8" fill-opacity="0.153" /><rect x="20.0" y="236.0" width="20.0" height="20.0" rx="4.4" fill="#8D98E8" fill-opacity="0.101" /><rect x="46.0" y="236.0" width="20.0" height="20.0" rx="4.4" fill="#FF9A4D" fill-opacity="1.0" /><rect x="72.0" y="236.0" width="20.0" height="20.0" rx="4.4" fill="#FF9A4D" fill-opacity="1.0" /><rect x="98.0" y="236.0" width="20.0" height="20.0" rx="4.4" fill="#8D98E8" fill-opacity="0.173" /><rect x="124.0" y="236.0" width="20.0" height="20.0" rx="4.4" fill="#8D98E8" fill-opacity="0.2" /><rect x="150.0" y="236.0" width="20.0" height="20.0" rx="4.4" fill="#8D98E8" fill-opacity="0.146" /><rect x="176.0" y="236.0" width="20.0" height="20.0" rx="4.4" fill="#8D98E8" fill-opacity="0.109" /><rect x="202.0" y="236.0" width="20.0" height="20.0" rx="4.4" fill="#FF4D6A" fill-opacity="1.0" /><rect x="228.0" y="236.0" width="20.0" height="20.0" rx="4.4" fill="#8D98E8" fill-opacity="0.125" /><rect x="254.0" y="236.0" width="20.0" height="20.0" rx="4.4" fill="#8D98E8" fill-opacity="0.176" /><rect x="280.0" y="236.0" width="20.0" height="20.0" rx="4.4" fill="#8D98E8" fill-opacity="0.102" /><rect x="454.0" y="54.0" width="20.0" height="20.0" rx="4.4" fill="#8D98E8" fill-opacity="0.144" /><rect x="480.0" y="54.0" width="20.0" height="20.0" rx="4.4" fill="none" fill-opacity="1" stroke="#2EE6B6" stroke-width="1.5" stroke-dasharray="3 3"/><rect x="506.0" y="54.0" width="20.0" height="20.0" rx="4.4" fill="#8D98E8" fill-opacity="0.175" /><rect x="532.0" y="54.0" width="20.0" height="20.0" rx="4.4" fill="#8D98E8" fill-opacity="0.115" /><rect x="558.0" y="54.0" width="20.0" height="20.0" rx="4.4" fill="#8D98E8" fill-opacity="0.17" /><rect x="584.0" y="54.0" width="20.0" height="20.0" rx="4.4" fill="#8D98E8" fill-opacity="0.2" /><rect x="610.0" y="54.0" width="20.0" height="20.0" rx="4.4" fill="#8D98E8" fill-opacity="0.116" /><rect x="636.0" y="54.0" width="20.0" height="20.0" rx="4.4" fill="#8D98E8" fill-opacity="0.146" /><rect x="662.0" y="54.0" width="20.0" height="20.0" rx="4.4" fill="#8D98E8" fill-opacity="0.175" /><rect x="688.0" y="54.0" width="20.0" height="20.0" rx="4.4" fill="#8D98E8" fill-opacity="0.137" /><rect x="714.0" y="54.0" width="20.0" height="20.0" rx="4.4" fill="#8D98E8" fill-opacity="0.127" /><rect x="454.0" y="80.0" width="20.0" height="20.0" rx="4.4" fill="#8D98E8" fill-opacity="0.173" /><rect x="480.0" y="80.0" width="20.0" height="20.0" rx="4.4" fill="#8D98E8" fill-opacity="0.187" /><rect x="506.0" y="80.0" width="20.0" height="20.0" rx="4.4" fill="#8D98E8" fill-opacity="0.119" /><rect x="532.0" y="80.0" width="20.0" height="20.0" rx="4.4" fill="#8D98E8" fill-opacity="0.175" /><rect x="558.0" y="80.0" width="20.0" height="20.0" rx="4.4" fill="#8D98E8" fill-opacity="0.166" /><rect x="584.0" y="80.0" width="20.0" height="20.0" rx="4.4" fill="#8D98E8" fill-opacity="0.182" /><rect x="610.0" y="80.0" width="20.0" height="20.0" rx="4.4" fill="#8D98E8" fill-opacity="0.147" /><rect x="636.0" y="80.0" width="20.0" height="20.0" rx="4.4" fill="#8D98E8" fill-opacity="0.158" /><rect x="662.0" y="80.0" width="20.0" height="20.0" rx="4.4" fill="#8D98E8" fill-opacity="0.109" /><rect x="688.0" y="80.0" width="20.0" height="20.0" rx="4.4" fill="#8D98E8" fill-opacity="0.106" /><rect x="714.0" y="80.0" width="20.0" height="20.0" rx="4.4" fill="#8D98E8" fill-opacity="0.113" /><rect x="454.0" y="106.0" width="20.0" height="20.0" rx="4.4" fill="#8D98E8" fill-opacity="0.161" /><rect x="480.0" y="106.0" width="20.0" height="20.0" rx="4.4" fill="#8D98E8" fill-opacity="0.131" /><rect x="506.0" y="106.0" width="20.0" height="20.0" rx="4.4" fill="#8D98E8" fill-opacity="0.189" /><rect x="532.0" y="106.0" width="20.0" height="20.0" rx="4.4" fill="#8D98E8" fill-opacity="0.147" /><rect x="558.0" y="106.0" width="20.0" height="20.0" rx="4.4" fill="none" fill-opacity="1" stroke="#2EE6B6" stroke-width="1.5" stroke-dasharray="3 3"/><rect x="584.0" y="106.0" width="20.0" height="20.0" rx="4.4" fill="#8D98E8" fill-opacity="0.15" /><rect x="610.0" y="106.0" width="20.0" height="20.0" rx="4.4" fill="#8D98E8" fill-opacity="0.209" /><rect x="636.0" y="106.0" width="20.0" height="20.0" rx="4.4" fill="none" fill-opacity="1" stroke="#2EE6B6" stroke-width="1.5" stroke-dasharray="3 3"/><rect x="662.0" y="106.0" width="20.0" height="20.0" rx="4.4" fill="#8D98E8" fill-opacity="0.159" /><rect x="688.0" y="106.0" width="20.0" height="20.0" rx="4.4" fill="#8D98E8" fill-opacity="0.162" /><rect x="711.0" y="103.0" width="26.0" height="26.0" rx="7.0" fill="#FF9A4D" fill-opacity="0.2" /><rect x="714.0" y="106.0" width="20.0" height="20.0" rx="4.4" fill="#FF9A4D" fill-opacity="1.0" /><rect x="454.0" y="132.0" width="20.0" height="20.0" rx="4.4" fill="#8D98E8" fill-opacity="0.212" /><rect x="480.0" y="132.0" width="20.0" height="20.0" rx="4.4" fill="#8D98E8" fill-opacity="0.217" /><rect x="506.0" y="132.0" width="20.0" height="20.0" rx="4.4" fill="#8D98E8" fill-opacity="0.115" /><rect x="532.0" y="132.0" width="20.0" height="20.0" rx="4.4" fill="#8D98E8" fill-opacity="0.158" /><rect x="558.0" y="132.0" width="20.0" height="20.0" rx="4.4" fill="#8D98E8" fill-opacity="0.178" /><rect x="584.0" y="132.0" width="20.0" height="20.0" rx="4.4" fill="#8D98E8" fill-opacity="0.174" /><rect x="610.0" y="132.0" width="20.0" height="20.0" rx="4.4" fill="#8D98E8" fill-opacity="0.109" /><rect x="636.0" y="132.0" width="20.0" height="20.0" rx="4.4" fill="none" fill-opacity="1" stroke="#2EE6B6" stroke-width="1.5" stroke-dasharray="3 3"/><rect x="662.0" y="132.0" width="20.0" height="20.0" rx="4.4" fill="#8D98E8" fill-opacity="0.125" /><rect x="688.0" y="132.0" width="20.0" height="20.0" rx="4.4" fill="#8D98E8" fill-opacity="0.21" /><rect x="714.0" y="132.0" width="20.0" height="20.0" rx="4.4" fill="#8D98E8" fill-opacity="0.19" /><rect x="454.0" y="158.0" width="20.0" height="20.0" rx="4.4" fill="#8D98E8" fill-opacity="0.108" /><rect x="480.0" y="158.0" width="20.0" height="20.0" rx="4.4" fill="#8D98E8" fill-opacity="0.149" /><rect x="506.0" y="158.0" width="20.0" height="20.0" rx="4.4" fill="#8D98E8" fill-opacity="0.13" /><rect x="532.0" y="158.0" width="20.0" height="20.0" rx="4.4" fill="#8D98E8" fill-opacity="0.106" /><rect x="558.0" y="158.0" width="20.0" height="20.0" rx="4.4" fill="#8D98E8" fill-opacity="0.134" /><rect x="584.0" y="158.0" width="20.0" height="20.0" rx="4.4" fill="#8D98E8" fill-opacity="0.164" /><rect x="610.0" y="158.0" width="20.0" height="20.0" rx="4.4" fill="#8D98E8" fill-opacity="0.217" /><rect x="636.0" y="158.0" width="20.0" height="20.0" rx="4.4" fill="#8D98E8" fill-opacity="0.111" /><rect x="662.0" y="158.0" width="20.0" height="20.0" rx="4.4" fill="#8D98E8" fill-opacity="0.117" /><rect x="688.0" y="158.0" width="20.0" height="20.0" rx="4.4" fill="#8D98E8" fill-opacity="0.154" /><rect x="714.0" y="158.0" width="20.0" height="20.0" rx="4.4" fill="#8D98E8" fill-opacity="0.14" /><rect x="454.0" y="184.0" width="20.0" height="20.0" rx="4.4" fill="#8D98E8" fill-opacity="0.188" /><rect x="480.0" y="184.0" width="20.0" height="20.0" rx="4.4" fill="#8D98E8" fill-opacity="0.163" /><rect x="506.0" y="184.0" width="20.0" height="20.0" rx="4.4" fill="#8D98E8" fill-opacity="0.214" /><rect x="532.0" y="184.0" width="20.0" height="20.0" rx="4.4" fill="#8D98E8" fill-opacity="0.171" /><rect x="558.0" y="184.0" width="20.0" height="20.0" rx="4.4" fill="#8D98E8" fill-opacity="0.211" /><rect x="584.0" y="184.0" width="20.0" height="20.0" rx="4.4" fill="#8D98E8" fill-opacity="0.157" /><rect x="610.0" y="184.0" width="20.0" height="20.0" rx="4.4" fill="#8D98E8" fill-opacity="0.143" /><rect x="636.0" y="184.0" width="20.0" height="20.0" rx="4.4" fill="#8D98E8" fill-opacity="0.137" /><rect x="662.0" y="184.0" width="20.0" height="20.0" rx="4.4" fill="#8D98E8" fill-opacity="0.104" /><rect x="688.0" y="184.0" width="20.0" height="20.0" rx="4.4" fill="#8D98E8" fill-opacity="0.172" /><rect x="714.0" y="184.0" width="20.0" height="20.0" rx="4.4" fill="#8D98E8" fill-opacity="0.109" /><rect x="454.0" y="210.0" width="20.0" height="20.0" rx="4.4" fill="#8D98E8" fill-opacity="0.108" /><rect x="480.0" y="210.0" width="20.0" height="20.0" rx="4.4" fill="#8D98E8" fill-opacity="0.137" /><rect x="506.0" y="210.0" width="20.0" height="20.0" rx="4.4" fill="#8D98E8" fill-opacity="0.116" /><rect x="532.0" y="210.0" width="20.0" height="20.0" rx="4.4" fill="#8D98E8" fill-opacity="0.109" /><rect x="558.0" y="210.0" width="20.0" height="20.0" rx="4.4" fill="#8D98E8" fill-opacity="0.154" /><rect x="584.0" y="210.0" width="20.0" height="20.0" rx="4.4" fill="#8D98E8" fill-opacity="0.144" /><rect x="610.0" y="210.0" width="20.0" height="20.0" rx="4.4" fill="#8D98E8" fill-opacity="0.105" /><rect x="636.0" y="210.0" width="20.0" height="20.0" rx="4.4" fill="#8D98E8" fill-opacity="0.212" /><rect x="662.0" y="210.0" width="20.0" height="20.0" rx="4.4" fill="#8D98E8" fill-opacity="0.188" /><rect x="688.0" y="210.0" width="20.0" height="20.0" rx="4.4" fill="none" fill-opacity="1" stroke="#2EE6B6" stroke-width="1.5" stroke-dasharray="3 3"/><rect x="714.0" y="210.0" width="20.0" height="20.0" rx="4.4" fill="#8D98E8" fill-opacity="0.116" /><rect x="454.0" y="236.0" width="20.0" height="20.0" rx="4.4" fill="#8D98E8" fill-opacity="0.216" /><rect x="477.0" y="233.0" width="26.0" height="26.0" rx="7.0" fill="#FF9A4D" fill-opacity="0.2" /><rect x="480.0" y="236.0" width="20.0" height="20.0" rx="4.4" fill="#FF9A4D" fill-opacity="1.0" /><rect x="506.0" y="236.0" width="20.0" height="20.0" rx="4.4" fill="none" fill-opacity="1" stroke="#2EE6B6" stroke-width="1.5" stroke-dasharray="3 3"/><rect x="532.0" y="236.0" width="20.0" height="20.0" rx="4.4" fill="#8D98E8" fill-opacity="0.141" /><rect x="558.0" y="236.0" width="20.0" height="20.0" rx="4.4" fill="#8D98E8" fill-opacity="0.11" /><rect x="584.0" y="236.0" width="20.0" height="20.0" rx="4.4" fill="#8D98E8" fill-opacity="0.157" /><rect x="610.0" y="236.0" width="20.0" height="20.0" rx="4.4" fill="#8D98E8" fill-opacity="0.109" /><rect x="633.0" y="233.0" width="26.0" height="26.0" rx="7.0" fill="#FF4D6A" fill-opacity="0.2" /><rect x="636.0" y="236.0" width="20.0" height="20.0" rx="4.4" fill="#FF4D6A" fill-opacity="1.0" /><rect x="662.0" y="236.0" width="20.0" height="20.0" rx="4.4" fill="#8D98E8" fill-opacity="0.203" /><rect x="688.0" y="236.0" width="20.0" height="20.0" rx="4.4" fill="#8D98E8" fill-opacity="0.213" /><rect x="714.0" y="236.0" width="20.0" height="20.0" rx="4.4" fill="#8D98E8" fill-opacity="0.104" /><path d="M358.0 158.0 H398.0 M386.0 146.0 L400.0 158.0 L386.0 170.0" stroke="#8D98E8" stroke-width="3" fill="none" stroke-linecap="round" stroke-linejoin="round"/><text x="20" y="40.0" fill="#8D98E8" font-family="'Cascadia Mono',Consolas,ui-monospace,monospace" font-size="13" letter-spacing="2">BEFORE</text><text x="454" y="40.0" fill="#8D98E8" font-family="'Cascadia Mono',Consolas,ui-monospace,monospace" font-size="13" letter-spacing="2">AFTER</text></svg>