<svg xmlns="http://www.w3.org/2000/svg" width="64" height="64" viewBox="0 0 64 64"><defs><linearGradient id="bg" x1="0" y1="0" x2="1" y2="1"><stop offset="0" stop-color="#232C7A"/><stop offset="1" stop-color="#0A0E2B"/></linearGradient><linearGradient id="core" x1="0" y1="0" x2="1" y2="1"><stop offset="0" stop-color="#6FA0FF"/><stop offset="1" stop-color="#9B5BFF"/></linearGradient></defs><rect width="64" height="64" rx="14.4" fill="url(#bg)"/><rect x="1" y="1" width="62" height="62" rx="14.1" fill="none" stroke="#8FA2FF" stroke-opacity="0.28" stroke-width="2"/><rect x="11.7" y="11.7" width="6.8" height="6.8" rx="1.5" fill="#EEF1FF" fill-opacity="1.0" /><rect x="20.2" y="11.7" width="6.8" height="6.8" rx="1.5" fill="#EEF1FF" fill-opacity="0.14" /><rect x="28.6" y="11.7" width="6.8" height="6.8" rx="1.5" fill="#EEF1FF" fill-opacity="0.14" /><rect x="37.1" y="11.7" width="6.8" height="6.8" rx="1.5" fill="#EEF1FF" fill-opacity="0.14" /><rect x="45.5" y="11.7" width="6.8" height="6.8" rx="1.5" fill="#EEF1FF" fill-opacity="1.0" /><rect x="11.7" y="20.2" width="6.8" height="6.8" rx="1.5" fill="#EEF1FF" fill-opacity="1.0" /><rect x="20.2" y="20.2" width="6.8" height="6.8" rx="1.5" fill="#EEF1FF" fill-opacity="1.0" /><rect x="28.6" y="20.2" width="6.8" height="6.8" rx="1.5" fill="#EEF1FF" fill-opacity="0.14" /><rect x="37.1" y="20.2" width="6.8" height="6.8" rx="1.5" fill="#EEF1FF" fill-opacity="1.0" /><rect x="45.5" y="20.2" width="6.8" height="6.8" rx="1.5" fill="#EEF1FF" fill-opacity="1.0" /><rect x="11.7" y="28.6" width="6.8" height="6.8" rx="1.5" fill="#EEF1FF" fill-opacity="1.0" /><rect x="20.2" y="28.6" width="6.8" height="6.8" rx="1.5" fill="#EEF1FF" fill-opacity="0.14" /><rect x="28.6" y="28.6" width="6.8" height="6.8" rx="1.5" fill="url(#core)" fill-opacity="1.0" /><rect x="37.1" y="28.6" width="6.8" height="6.8" rx="1.5" fill="#EEF1FF" fill-opacity="0.14" /><rect x="45.5" y="28.6" width="6.8" height="6.8" rx="1.5" fill="#EEF1FF" fill-opacity="1.0" /><rect x="11.7" y="37.1" width="6.8" height="6.8" rx="1.5" fill="#EEF1FF" fill-opacity="1.0" /><rect x="20.2" y="37.1" width="6.8" height="6.8" rx="1.5" fill="#EEF1FF" fill-opacity="0.14" /><rect x="28.6" y="37.1" width="6.8" height="6.8" rx="1.5" fill="#EEF1FF" fill-opacity="0.14" /><rect x="37.1" y="37.1" width="6.8" height="6.8" rx="1.5" fill="#EEF1FF" fill-opacity="0.14" /><rect x="45.5" y="37.1" width="6.8" height="6.8" rx="1.5" fill="#EEF1FF" fill-opacity="1.0" /><rect x="11.7" y="45.5" width="6.8" height="6.8" rx="1.5" fill="#EEF1FF" fill-opacity="1.0" /><rect x="20.2" y="45.5" width="6.8" height="6.8" rx="1.5" fill="#EEF1FF" fill-opacity="0.14" /><rect x="28.6" y="45.5" width="6.8" height="6.8" rx="1.5" fill="#EEF1FF" fill-opacity="0.14" /><rect x="37.1" y="45.5" width="6.8" height="6.8" rx="1.5" fill="#EEF1FF" fill-opacity="0.14" /><rect x="45.5" y="45.5" width="6.8" height="6.8" rx="1.5" fill="#EEF1FF" fill-opacity="1.0" /></svg>